<?xml version="1.0" encoding="utf-8"?>
<!-- Generator: Adobe Illustrator 26.5.0, SVG Export Plug-In . SVG Version: 6.00 Build 0)  -->
<svg version="1.1" id="Capa_1" xmlns="http://www.w3.org/2000/svg" xmlns:xlink="http://www.w3.org/1999/xlink" x="0px" y="0px"
	 viewBox="0 0 532.81 210.25" style="enable-background:new 0 0 532.81 210.25;" xml:space="preserve">
<style type="text/css">
	.st0{fill:#ED1C24;}
</style>
<g>
	<path d="M51.05,78.28c-0.46,0-0.83-0.28-1.01-0.74L44.42,60.6H18.91l-5.53,16.94c-0.09,0.46-0.46,0.74-0.92,0.74H2.52
		c-0.37,0-0.64-0.37-0.46-0.74l22.19-62.99c0.18-0.46,0.55-0.74,1.01-0.74H38.8c0.46,0,0.83,0.28,1.01,0.74l21.82,62.99
		c0.18,0.37-0.09,0.74-0.46,0.74H51.05z M41.29,51.2l-9.76-29.47L21.95,51.2H41.29z"/>
	<path d="M68.46,78.28c-0.37,0-0.74-0.37-0.74-0.74l0.28-23.21l-0.28-22.75c0-0.37,0.37-0.74,0.74-0.74h9.58
		c0.37,0,0.74,0.37,0.74,0.74l-0.28,7.55c3.5-5.71,9.76-8.66,16.48-8.66c0.92,0,1.75,0.09,2.49,0.18c0.37,0.09,0.74,0.55,0.74,0.92
		v7.18c0,0.37-0.37,0.64-0.74,0.64c-0.64-0.09-1.47-0.09-2.21-0.09c-8.93,0-16.12,5.16-16.48,15.93l0.09,22.29
		c0,0.37-0.37,0.74-0.74,0.74H68.46z"/>
	<path d="M146.55,93.2c0,0.37-0.37,0.74-0.74,0.74h-9.76c-0.37,0-0.74-0.37-0.74-0.74l0.09-21.09c-3.22,4.42-8.1,7.09-14.37,7.09
		c-13.17,0-20.08-10.68-20.08-24.5c0-13.72,7.55-24.77,20.26-24.77c6.26,0,11.14,2.49,14.37,7.09l-0.28-5.43
		c0-0.37,0.37-0.74,0.74-0.74h9.76c0.37,0,0.74,0.37,0.74,0.74l-0.28,29.47L146.55,93.2z M123.99,71.37
		c7.46,0,11.79-5.43,11.88-16.3c0.09-10.96-4.14-17.31-11.6-17.31c-7.83,0-12.06,5.8-12.06,16.39
		C112.2,65.02,116.16,71.37,123.99,71.37z"/>
	<path d="M171.69,79.38c-9.95,0-16.21-6.63-16.21-18.6v-9.76l-0.18-19.43c0-0.37,0.37-0.74,0.74-0.74h9.76
		c0.37,0,0.74,0.37,0.74,0.74l-0.18,19.43v9.48c0,6.72,3.59,10.22,8.56,10.22c5.62,0,10.77-4.7,11.7-14.55v-5.16l-0.09-19.43
		c0-0.37,0.37-0.74,0.74-0.74h9.85c0.37,0,0.74,0.37,0.74,0.74l-0.18,21.55l0.09,24.4c0,0.37-0.37,0.74-0.74,0.74h-9.3
		c-0.37,0-0.74-0.37-0.74-0.74l0.28-6.17C184.12,75.79,178.78,79.38,171.69,79.38z"/>
	<path d="M208.16,25.97c-0.37,0-0.74-0.37-0.74-0.74v-9.48c0-0.37,0.37-0.74,0.74-0.74h9.76c0.37,0,0.74,0.37,0.74,0.74v9.48
		c0,0.37-0.37,0.74-0.74,0.74H208.16z M208.16,78.28c-0.37,0-0.74-0.37-0.74-0.74l0.18-23.3l-0.18-22.65c0-0.37,0.37-0.74,0.74-0.74
		h9.85c0.37,0,0.74,0.37,0.74,0.74l-0.28,22.65l0.28,23.3c0,0.37-0.37,0.74-0.74,0.74H208.16z"/>
	<path d="M255.12,76.8c0,0.46-0.28,0.83-0.74,0.92c-2.3,0.74-5.06,1.38-7.64,1.38c-7.46,0-14.18-3.78-14.18-14.37l0.09-25.6h-5.43
		c-0.37,0-0.74-0.37-0.74-0.74v-6.81c0-0.37,0.37-0.74,0.74-0.74h5.43l-0.09-11.14c0-0.37,0.37-0.74,0.74-0.74h9.67
		c0.37,0,0.74,0.37,0.74,0.74l-0.09,11.14h10.77c0.37,0,0.74,0.37,0.74,0.74v6.81c0,0.37-0.37,0.74-0.74,0.74h-10.77v25.32
		c0,4.79,2.03,6.26,5.53,6.26c2.12,0,3.87-0.37,5.25-0.74c0.37-0.09,0.74,0.18,0.74,0.55V76.8z"/>
	<path d="M304.3,62.07c0.37,0,0.74,0.37,0.64,0.74c-1.29,9.12-9.12,16.58-21.82,16.58c-15.29,0-23.48-10.22-23.48-24.68
		c0-15.01,8.75-24.96,23.11-24.96c14.73,0,23.02,9.95,23.3,26.15c0,0.37-0.37,0.74-0.74,0.74h-34.62
		c0.46,10.13,4.6,14.92,12.62,14.92c5.8,0,9.58-2.85,10.87-8.75c0.09-0.46,0.55-0.74,0.92-0.74H304.3z M282.84,37.48
		c-6.63,0-10.59,4.05-11.79,11.69h23.02C293.62,43.01,290.12,37.48,282.84,37.48z"/>
	<path d="M335.89,79.38c-14.73,0-23.21-9.67-23.21-24.68c0-15.01,8.47-24.96,23.39-24.96c11.97,0,19.52,6.81,20.54,17.04
		c0.09,0.37-0.28,0.74-0.64,0.74h-8.75c-0.37,0-0.74-0.28-0.83-0.74c-1.11-6.08-5.07-9.12-10.31-9.12c-8.2,0-12.06,5.89-12.06,16.94
		c0,11.42,3.96,16.85,12.06,16.94c5.99,0.09,10.13-3.78,10.68-10.59c0.09-0.46,0.46-0.74,0.83-0.74h9.02c0.37,0,0.74,0.37,0.64,0.74
		C356.33,71.65,348.23,79.38,335.89,79.38z"/>
	<path d="M390.5,76.8c0,0.46-0.28,0.83-0.74,0.92c-2.3,0.74-5.06,1.38-7.64,1.38c-7.46,0-14.18-3.78-14.18-14.37l0.09-25.6h-5.43
		c-0.37,0-0.74-0.37-0.74-0.74v-6.81c0-0.37,0.37-0.74,0.74-0.74h5.43l-0.09-11.14c0-0.37,0.37-0.74,0.74-0.74h9.67
		c0.37,0,0.74,0.37,0.74,0.74l-0.09,11.14h10.77c0.37,0,0.74,0.37,0.74,0.74v6.81c0,0.37-0.37,0.74-0.74,0.74h-10.77v25.32
		c0,4.79,2.03,6.26,5.52,6.26c2.12,0,3.87-0.37,5.25-0.74c0.37-0.09,0.74,0.18,0.74,0.55V76.8z"/>
	<path d="M413.98,79.38c-9.95,0-16.21-6.63-16.21-18.6v-9.76l-0.18-19.43c0-0.37,0.37-0.74,0.74-0.74h9.76
		c0.37,0,0.74,0.37,0.74,0.74l-0.18,19.43v9.48c0,6.72,3.59,10.22,8.56,10.22c5.62,0,10.77-4.7,11.7-14.55v-5.16l-0.09-19.43
		c0-0.37,0.37-0.74,0.74-0.74h9.85c0.37,0,0.74,0.37,0.74,0.74l-0.18,21.55l0.09,24.4c0,0.37-0.37,0.74-0.74,0.74H430
		c-0.37,0-0.74-0.37-0.74-0.74l0.28-6.17C426.41,75.79,421.07,79.38,413.98,79.38z"/>
	<path d="M450.08,78.28c-0.37,0-0.74-0.37-0.74-0.74l0.28-23.21l-0.28-22.75c0-0.37,0.37-0.74,0.74-0.74h9.58
		c0.37,0,0.74,0.37,0.74,0.74l-0.28,7.55c3.5-5.71,9.76-8.66,16.48-8.66c0.92,0,1.75,0.09,2.49,0.18c0.37,0.09,0.74,0.55,0.74,0.92
		v7.18c0,0.37-0.37,0.64-0.74,0.64c-0.64-0.09-1.47-0.09-2.21-0.09c-8.93,0-16.12,5.16-16.48,15.93l0.09,22.29
		c0,0.37-0.37,0.74-0.74,0.74H450.08z"/>
	<path d="M517.77,78.28c-0.37,0-0.74-0.37-0.74-0.74l0.18-5.8c-3.22,4.7-8.2,7.46-14.55,7.46c-13.17,0-20.08-10.68-20.08-24.5
		c0-13.72,7.55-24.77,20.26-24.77c6.26,0,11.14,2.39,14.37,7l-0.28-5.34c0-0.37,0.37-0.74,0.74-0.74h9.76
		c0.37,0,0.74,0.37,0.74,0.74l-0.28,22.84l0.28,23.11c0,0.37-0.37,0.74-0.74,0.74H517.77z M505.61,71.37
		c7.46,0,11.79-5.53,11.88-16.48c0.09-10.96-4.14-17.04-11.6-17.13c-8.1-0.09-12.06,6.08-12.06,16.21
		C493.82,65.02,497.88,71.37,505.61,71.37z"/>
	<path d="M29.04,165.4H16.88l0.18,22.65c0,0.37-0.37,0.74-0.74,0.74H6.29c-0.37,0-0.74-0.37-0.74-0.74l0.28-31.86l-0.28-31.12
		c0-0.37,0.37-0.74,0.74-0.74h22.75c14.83,0,23.67,6.81,23.67,20.26C52.71,158.03,43.59,165.4,29.04,165.4z M16.79,156.47v0.28
		h12.98c6.91,0,11.97-3.41,11.97-11.97c0-8.01-4.42-11.79-12.34-11.79H16.98L16.79,156.47z"/>
	<path d="M101.61,172.58c0.37,0,0.74,0.37,0.64,0.74c-1.29,9.12-9.12,16.58-21.82,16.58c-15.29,0-23.48-10.22-23.48-24.68
		c0-15.01,8.75-24.96,23.11-24.96c14.73,0,23.02,9.95,23.3,26.15c0,0.37-0.37,0.74-0.74,0.74H67.99
		c0.46,10.13,4.6,14.92,12.62,14.92c5.8,0,9.58-2.85,10.87-8.75c0.09-0.46,0.55-0.74,0.92-0.74H101.61z M80.15,147.99
		c-6.63,0-10.59,4.05-11.79,11.7h23.02C90.92,153.52,87.42,147.99,80.15,147.99z"/>
	<path d="M111.92,188.79c-0.37,0-0.74-0.37-0.74-0.74l0.28-23.21l-0.28-22.75c0-0.37,0.37-0.74,0.74-0.74h9.58
		c0.37,0,0.74,0.37,0.74,0.74l-0.28,7.55c3.5-5.71,9.76-8.66,16.48-8.66c0.92,0,1.75,0.09,2.49,0.18c0.37,0.09,0.74,0.55,0.74,0.92
		v7.18c0,0.37-0.37,0.64-0.74,0.64c-0.64-0.09-1.47-0.09-2.21-0.09c-8.93,0-16.12,5.16-16.48,15.93l0.09,22.29
		c0,0.37-0.37,0.74-0.74,0.74H111.92z"/>
	<path d="M179.52,188.79c-0.37,0-0.74-0.37-0.74-0.74l0.28-5.8c-3.22,4.7-8.2,7.46-14.55,7.46c-13.17,0-20.08-10.68-20.08-24.5
		c0-13.72,7.55-24.77,20.26-24.77c6.17,0,10.96,2.39,14.18,6.81l-0.09-22.19c0-0.37,0.37-0.74,0.74-0.74h9.76
		c0.37,0,0.74,0.37,0.74,0.74l-0.18,29.93l0.18,33.06c0,0.37-0.37,0.74-0.74,0.74H179.52z M167.45,181.97
		c7.46,0,11.79-5.53,11.88-16.48c0.09-11.05-4.14-17.22-11.6-17.31c-8.1-0.18-12.06,6.17-12.06,16.39
		C155.67,175.53,159.72,181.97,167.45,181.97z"/>
	<path d="M200.24,136.48c-0.37,0-0.74-0.37-0.74-0.74v-9.49c0-0.37,0.37-0.74,0.74-0.74H210c0.37,0,0.74,0.37,0.74,0.74v9.49
		c0,0.37-0.37,0.74-0.74,0.74H200.24z M200.24,188.79c-0.37,0-0.74-0.37-0.74-0.74l0.18-23.3l-0.18-22.65
		c0-0.37,0.37-0.74,0.74-0.74h9.85c0.37,0,0.74,0.37,0.74,0.74l-0.28,22.65l0.28,23.3c0,0.37-0.37,0.74-0.74,0.74H200.24z"/>
	<path d="M254.2,188.79c-0.37,0-0.74-0.37-0.74-0.74l0.28-5.8c-3.22,4.7-8.2,7.46-14.55,7.46c-13.17,0-20.07-10.68-20.07-24.5
		c0-13.72,7.55-24.77,20.26-24.77c6.17,0,10.96,2.39,14.18,6.81l-0.09-22.19c0-0.37,0.37-0.74,0.74-0.74h9.76
		c0.37,0,0.74,0.37,0.74,0.74l-0.18,29.93l0.18,33.06c0,0.37-0.37,0.74-0.74,0.74H254.2z M242.14,181.97
		c7.46,0,11.79-5.53,11.88-16.48c0.09-11.05-4.14-17.22-11.6-17.31c-8.1-0.18-12.06,6.17-12.06,16.39
		C230.35,175.53,234.4,181.97,242.14,181.97z"/>
	<path d="M307.8,188.79c-0.37,0-0.74-0.37-0.74-0.74l0.18-5.8c-3.22,4.7-8.2,7.46-14.55,7.46c-13.17,0-20.08-10.68-20.08-24.5
		c0-13.72,7.55-24.77,20.26-24.77c6.26,0,11.14,2.39,14.37,7l-0.28-5.34c0-0.37,0.37-0.74,0.74-0.74h9.76
		c0.37,0,0.74,0.37,0.74,0.74l-0.28,22.84l0.28,23.11c0,0.37-0.37,0.74-0.74,0.74H307.8z M295.64,181.88
		c7.46,0,11.79-5.53,11.88-16.48c0.09-10.96-4.14-17.04-11.6-17.13c-8.1-0.09-12.06,6.08-12.06,16.21
		C283.86,175.53,287.91,181.88,295.64,181.88z"/>
</g>
<rect x="325.47" y="124.11" class="st0" width="202.34" height="64.88"/>
</svg>
